<?xml version="1.0" encoding="utf-8"?>
<!-- Generator: Adobe Illustrator 27.9.0, SVG Export Plug-In . SVG Version: 6.00 Build 0)  -->
<svg version="1.1" id="Layer_1" xmlns="http://www.w3.org/2000/svg" xmlns:xlink="http://www.w3.org/1999/xlink" x="0px" y="0px"
	 viewBox="0 0 402.3 106.9" style="enable-background:new 0 0 402.3 106.9;" xml:space="preserve">
<style type="text/css">
	.st0{fill:#262C50;}
	.st1{fill:#808184;}
</style>
<g>
	<g>
		<g>
			<path class="st0" d="M54.9,81.9l-30.2,0V68h38.6c4.7,0,9.9-0.5,12.2-3.2c2.6-3,4.4-5.5,4.4-10.8c0-5.3-1.5-9.3-4.4-11.8
				c-2.9-2.6-7-3.9-12.2-3.9H16.1v67.4h-15V24h62.2c4.9,0,9.7,0.2,13.7,1.3c4,1.2,8,3.2,10.7,5.7c2.7,2.6,6.3,6.3,7.7,10
				c1.4,3.7,1.9,7.9,1.9,12.5c0,6.8-3.3,12.6-7.2,17.3c-3.5,4.3-11.2,7.7-16.9,9.7L54.9,81.9z"/>
			<path class="st1" d="M78,105.6L22.6,56.4c-2-1.7-2-4.8,0-6.5L78,0.7h26.5L41.4,53.2l63.1,52.4H78z"/>
		</g>
	</g>
	<g>
		<path class="st0" d="M137.7,29.6h5.7c3.2,0,5.4,0.1,6.6,0.4c1.6,0.4,3,1.2,4,2.5c1,1.2,1.5,2.8,1.5,4.7c0,1.9-0.5,3.5-1.5,4.7
			c-1,1.2-2.4,2.1-4.2,2.5c-1.3,0.3-3.7,0.5-7.2,0.5h-2V58h-2.8V29.6z M140.5,32.4V42l4.8,0.1c1.9,0,3.4-0.2,4.3-0.5
			c0.9-0.4,1.6-0.9,2.1-1.7c0.5-0.8,0.8-1.7,0.8-2.7c0-1-0.3-1.8-0.8-2.6c-0.5-0.8-1.2-1.4-2-1.7s-2.2-0.5-4.1-0.5H140.5z"/>
		<path class="st0" d="M173.9,28.8c4.3,0,7.9,1.4,10.8,4.3s4.4,6.4,4.4,10.6c0,4.2-1.4,7.7-4.3,10.6s-6.4,4.4-10.6,4.4
			c-4.2,0-7.8-1.4-10.7-4.3s-4.4-6.4-4.4-10.5c0-2.7,0.7-5.3,2-7.6c1.3-2.3,3.1-4.2,5.4-5.5C168.8,29.5,171.3,28.8,173.9,28.8z
			 M174.1,31.6c-2.1,0-4.1,0.5-6,1.6s-3.4,2.6-4.4,4.4c-1.1,1.9-1.6,3.9-1.6,6.2c0,3.4,1.2,6.2,3.5,8.6s5.2,3.5,8.5,3.5
			c2.2,0,4.3-0.5,6.1-1.6c1.9-1.1,3.3-2.5,4.4-4.4s1.6-3.9,1.6-6.2c0-2.3-0.5-4.3-1.6-6.1s-2.5-3.3-4.4-4.4
			C178.2,32.2,176.2,31.6,174.1,31.6z"/>
		<path class="st0" d="M194.2,29.6h2.8v11.9h14.5V29.6h2.8V58h-2.8V44.3h-14.5V58h-2.8V29.6z"/>
		<path class="st0" d="M218.3,32.4v-2.8h15.6v2.8h-6.3V58h-2.9V32.4H218.3z"/>
		<path class="st0" d="M237.8,29.6h16.3v2.8h-13.5v8.9h13.3v2.8h-13.3v11.2h13.3V58h-16.2V29.6z"/>
		<path class="st0" d="M258.7,29.6h2.9v10.7L273,29.6h3.8l-13.7,12.8L277.9,58h-3.8l-12.5-13.3V58h-2.9V29.6z"/>
		<path class="st0" d="M136.4,105.6l4.1-28.5h0.5l11.6,23.3L164,77.1h0.5l4.1,28.5h-2.8l-2.8-20.4l-10.1,20.4h-0.7L142,85.1
			l-2.8,20.5H136.4z"/>
		<path class="st0" d="M186.1,77.1l13.3,28.5h-3.1l-4.5-9.4h-12.3l-4.4,9.4h-3.2l13.4-28.5H186.1z M185.7,83.2l-4.9,10.3h9.7
			L185.7,83.2z"/>
		<path class="st0" d="M206.2,102.9h12.2V77.1h2.8v25.8h12.4V77.1h2.8v28.5h-33.1V77.1h2.8V102.9z"/>
		<path class="st0" d="M265.3,105.6h-3V83.7l-18.8,21.8h-0.6V77.1h2.8v22.2l18.9-22.2h0.6V105.6z"/>
		<path class="st0" d="M271.8,77.1h2.8V89h14.5V77.1h2.8v28.5h-2.8V91.8h-14.5v13.7h-2.8V77.1z"/>
		<path class="st0" d="M307.1,79.9v-2.8h15.6v2.8h-6.3v25.7h-2.9V79.9H307.1z"/>
		<path class="st0" d="M325.5,77.2h3.2l8.6,19.3l7.9-19.4h3.1l-10.8,25.6c-1,2.4-2.8,3.6-5.4,3.6c-1,0-2-0.2-2.9-0.6
			c-0.9-0.4-2.1-1.4-3.5-3l2.1-1.7c1.4,1.4,2.4,2.2,2.9,2.4s1,0.3,1.5,0.3c0.7,0,1.4-0.2,1.9-0.6c0.5-0.4,1.2-1.4,1.8-3L325.5,77.2z
			"/>
		<path class="st0" d="M371.8,105.6h-3.1l-9.4-22l-9.6,22h-3.1L359,77.1h0.6L371.8,105.6z"/>
		<path class="st0" d="M400.9,82.4l-2.2,1.7c-1.2-1.6-2.7-2.8-4.5-3.7c-1.7-0.8-3.6-1.2-5.7-1.2c-2.3,0-4.4,0.5-6.3,1.6
			c-1.9,1.1-3.4,2.6-4.5,4.4c-1.1,1.8-1.6,3.9-1.6,6.2c0,3.5,1.2,6.4,3.6,8.7c2.4,2.3,5.4,3.5,9,3.5c4,0,7.3-1.6,10-4.7l2.2,1.7
			c-1.4,1.8-3.2,3.2-5.3,4.2c-2.1,1-4.5,1.5-7.1,1.5c-5,0-8.9-1.7-11.8-5c-2.4-2.8-3.6-6.2-3.6-10.1c0-4.2,1.5-7.7,4.4-10.5
			s6.6-4.3,11-4.3c2.7,0,5.1,0.5,7.2,1.6C397.8,79,399.6,80.5,400.9,82.4z"/>
	</g>
</g>
</svg>
