<?xml version="1.0" encoding="UTF-8"?>
<svg id="Layer_1" data-name="Layer 1" xmlns="http://www.w3.org/2000/svg" xmlns:xlink="http://www.w3.org/1999/xlink" viewBox="0 0 374.53 86.04">
  <defs>
    <style>
      .cls-1 {
        fill: url(#linear-gradient);
      }

      .cls-1, .cls-2 {
        stroke-width: 0px;
      }

      .cls-2 {
        fill: #d10000;
      }
    </style>
    <linearGradient id="linear-gradient" x1="315.71" y1="53.8" x2="374.53" y2="53.8" gradientUnits="userSpaceOnUse">
      <stop offset="0" stop-color="#fcb315"/>
      <stop offset="1" stop-color="#f05023"/>
    </linearGradient>
  </defs>
  <path class="cls-2" d="m52.98,68.11l-17.43-17.43,16.63-16.63-16.63-16.63L52.98,0l16.63,16.63,3.58,3.58c7.65,7.65,7.65,20.05,0,27.7l-20.21,20.21Zm-7.92-.49l-16.63-16.63,16.63-16.63L26.65,15.95,5.94,36.65c-3.83,3.83-5.94,8.92-5.94,14.34s2.11,10.51,5.94,14.34l20.7,20.7,18.42-18.42Zm-1.98-33.26l-16.63,16.63,16.63,16.63-16.43,16.44-19.71-19.71c-3.57-3.57-5.53-8.31-5.53-13.35s1.96-9.79,5.53-13.35l19.71-19.71,16.43,16.44Z"/>
  <path class="cls-2" d="m99.59,64.55h9.98V21.55h-9.98v43Zm25.92-43v15.54h-13.48v10.93h13.48v16.53h12.51V21.55h-12.51Z"/>
  <path class="cls-2" d="m153.75,21.55h-10.93l15.59,26.16v16.83h12.58v-10.84l-17.24-32.16Zm19.22,0l-8.15,15.44,6.16,11.5v-.77l15.72-26.16h-13.73Z"/>
  <path class="cls-2" d="m191.51,64.55h9.92V21.55h-9.92v43Zm39.61-30.22c-1.13-2.63-2.72-4.87-4.78-6.76-2.05-1.88-4.49-3.36-7.31-4.42-2.82-1.06-5.94-1.6-9.36-1.6h-5.77v10.87h5.2c3.34,0,6.01.96,8.05,2.88,2.03,1.93,3.04,4.49,3.04,7.68,0,1.6-.27,3.05-.8,4.36-.54,1.31-1.28,2.44-2.25,3.38-.96.94-2.13,1.66-3.5,2.18-1.36.51-2.88.77-4.55.77h-5.2v10.87h5.77c3.38,0,6.49-.54,9.34-1.6,2.84-1.06,5.29-2.55,7.34-4.46,2.06-1.9,3.65-4.18,4.78-6.82,1.13-2.64,1.7-5.53,1.7-8.69s-.57-6.04-1.7-8.65"/>
  <path class="cls-2" d="m268.3,48.88c2.22-1.27,3.97-2.93,5.22-5.01,1.26-2.07,1.89-4.43,1.89-7.09,0-2.25-.42-4.31-1.25-6.17-.83-1.87-1.99-3.47-3.47-4.82-1.48-1.35-3.23-2.4-5.26-3.14-2.03-.73-4.26-1.1-6.7-1.1h-7.05v10.51h5.64c1.75,0,3.1.44,4.04,1.32.94.88,1.41,1.99,1.41,3.34s-.47,2.47-1.41,3.35c-.94.88-2.29,1.32-4.04,1.32h-5.64v10.01h4.42l7.31,13.15h13.79l-8.91-15.67Zm-29,15.67h9.92V21.55h-9.92v43Z"/>
  <path class="cls-2" d="m296.17,34.75c.14-.14.29-.28.45-.42v-12.81c-.65.17-1.28.38-1.89.61-3.04,1.13-5.65,2.69-7.86,4.69-2.2,2.01-3.91,4.39-5.13,7.15-1.22,2.77-1.83,5.79-1.83,9.06s.61,6.29,1.83,9.06c1.22,2.77,2.93,5.15,5.13,7.15,2.2,2.01,4.82,3.57,7.86,4.7.62.23,1.25.44,1.89.61v-12.82c-.16-.14-.31-.27-.45-.42-1.05-1.02-1.87-2.24-2.47-3.65-.6-1.41-.9-2.96-.9-4.64s.29-3.22.9-4.64c.6-1.41,1.42-2.63,2.47-3.66m31.31-.83c-1.22-2.76-2.92-5.14-5.1-7.13-2.18-1.99-4.78-3.54-7.79-4.66-3.01-1.13-6.32-1.69-9.91-1.69-1.94,0-3.81.16-5.59.5v11.78c.27-.13.55-.25.84-.37,1.46-.57,3.04-.86,4.75-.86s3.28.29,4.71.86c1.43.57,2.67,1.37,3.72,2.39,1.05,1.03,1.86,2.25,2.44,3.66.57,1.41.87,2.96.87,4.64s-.29,3.22-.87,4.64c-.58,1.41-1.39,2.63-2.44,3.65-1.05,1.03-2.29,1.82-3.72,2.4-1.43.57-3.01.86-4.71.86s-3.29-.29-4.75-.86c-.29-.11-.57-.24-.84-.37v11.78c1.78.34,3.65.5,5.59.5,3.59,0,6.9-.57,9.91-1.69,3.01-1.13,5.61-2.68,7.79-4.66,2.18-1.99,3.88-4.36,5.1-7.13,1.21-2.76,1.82-5.81,1.82-9.12s-.61-6.36-1.82-9.12"/>
  <path class="cls-1" d="m329.44,21.55l12.7,21.48-26.42,43.01h14.89l19.56-34.7,4.89-8.3-4.96-9.32-6.74-12.16h-13.92Zm30.41,0l-6.8,12.16,4.96,9.32-4.89,8.3,7.38,13.2h14.05l-13.54-21.51,12.64-21.48h-13.79Z"/>
</svg>