<?xml version="1.0" encoding="utf-8"?>
<!-- Generator: Adobe Illustrator 27.9.0, SVG Export Plug-In . SVG Version: 6.00 Build 0)  -->
<svg version="1.1" id="Layer_1" xmlns="http://www.w3.org/2000/svg" xmlns:xlink="http://www.w3.org/1999/xlink" x="0px" y="0px"
	 viewBox="0 0 370.3 84.9" style="enable-background:new 0 0 370.3 84.9;" xml:space="preserve">
<style type="text/css">
	.st0{fill:#921A1C;}
	.st1{fill:#090F0F;}
</style>
<path class="st0" d="M5.1,43.1c-0.4,0-0.8-0.3-0.8-0.8V21.8c0-0.4,0.3-0.8,0.8-0.8c0.4,0,0.8,0.3,0.8,0.8v20.5
	C5.8,42.8,5.5,43.1,5.1,43.1"/>
<path class="st0" d="M74.2,64c-0.4,0-0.8-0.3-0.8-0.8V42.7c0-0.4,0.3-0.8,0.8-0.8c0.4,0,0.8,0.3,0.8,0.8v20.5
	C75,63.7,74.6,64,74.2,64"/>
<path class="st1" d="M5.8,28.3h8v-1.5h-8V28.3z M13.8,35.1h-8v1.5h8V35.1z M17.2,31.7c0,1.9-1.5,3.4-3.4,3.4v1.5
	c2.7,0,4.9-2.2,4.9-4.9H17.2z M13.8,28.3c1.9,0,3.4,1.5,3.4,3.4h1.5c0-2.7-2.2-4.9-4.9-4.9V28.3z"/>
<path class="st1" d="M73.5,56h-8v1.5h8V56z M65.5,49.2h8v-1.5h-8V49.2z M62.1,52.6c0-1.9,1.5-3.4,3.4-3.4v-1.5
	c-2.7,0-4.9,2.2-4.9,4.9H62.1z M65.5,56c-1.9,0-3.4-1.5-3.4-3.4h-1.5c0,2.7,2.2,4.9,4.9,4.9V56z"/>
<path class="st0" d="M13.8,29.4c1.3,0,2.3,1,2.3,2.3c0,1.3-1,2.3-2.3,2.3c-1.3,0-2.3-1-2.3-2.3C11.5,30.5,12.5,29.4,13.8,29.4"/>
<path class="st0" d="M65.5,50.3c1.3,0,2.3,1,2.3,2.3c0,1.3-1,2.3-2.3,2.3c-1.3,0-2.3-1-2.3-2.3C63.2,51.4,64.2,50.3,65.5,50.3"/>
<path class="st1" d="M54.9,44.3c-0.1,0-0.2,0-0.3-0.1L21.1,30.4c-0.4-0.2-0.6-0.6-0.4-1c0.2-0.4,0.6-0.6,1-0.4l33.4,13.9
	c0.4,0.2,0.6,0.6,0.4,1C55.5,44.1,55.2,44.3,54.9,44.3"/>
<path class="st1" d="M50.7,53.1c-0.1,0-0.2,0-0.3-0.1L17.3,39.5c-0.4-0.2-0.6-0.6-0.4-1c0.2-0.4,0.6-0.6,1-0.4L51,51.6
	c0.4,0.2,0.6,0.6,0.4,1C51.3,52.9,51,53.1,50.7,53.1"/>
<path class="st1" d="M59.5,48.8c-0.1,0-0.2,0-0.3-0.1l-19.7-8.1c-0.4-0.2-0.6-0.6-0.4-1c0.2-0.4,0.6-0.6,1-0.4l19.7,8.1
	c0.4,0.2,0.6,0.6,0.4,1C60.1,48.6,59.8,48.8,59.5,48.8"/>
<path class="st1" d="M57.8,53.1c-0.1,0-0.2,0-0.3-0.1l-19.7-8.1c-0.4-0.2-0.6-0.6-0.4-1c0.2-0.4,0.6-0.6,1-0.4l19.7,8.1
	c0.4,0.2,0.6,0.6,0.4,1C58.4,52.9,58.1,53.1,57.8,53.1"/>
<path class="st0" d="M63.9,63c-0.1,0-0.2,0-0.3-0.1c-5.3-2.3-8-8.3-5.9-13.2c2.2-5,8.2-7.3,13.3-5.1c0.4,0.2,0.6,0.6,0.4,1
	c-0.2,0.4-0.6,0.6-1,0.4c-4.4-1.9-9.4,0-11.3,4.3c-1.8,4.1,0.5,9.2,5.1,11.2c0.4,0.2,0.6,0.6,0.4,1C64.5,62.8,64.2,63,63.9,63"/>
<path class="st0" d="M12,41c-1.4,0-2.8-0.3-4.2-0.9c-0.4-0.2-0.6-0.6-0.4-1c0.2-0.4,0.6-0.6,1-0.4c4.3,1.9,9.4,0,11.3-4.2
	c0.9-2,0.9-4.3-0.1-6.5c-1-2.1-2.7-3.8-4.8-4.8c-0.4-0.2-0.6-0.6-0.4-1c0.2-0.4,0.6-0.6,1-0.4c2.5,1.1,4.5,3.1,5.6,5.6
	c1.2,2.6,1.2,5.3,0.1,7.7C19.5,38.8,15.9,41,12,41"/>
<path class="st1" d="M125.1,62.7h-9.7l-10.5-17l-3.6,2.6v14.4h-8.5V22.5h8.5v18.4c0.6-0.8,1.1-1.6,1.7-2.4c0.6-0.8,1.1-1.6,1.7-2.4
	l10.9-13.7h9.5l-14,17.8L125.1,62.7z M154.7,62.7l-2.9-9.6h-14.7l-2.9,9.6h-9.2l14.2-40.4h10.4l14.3,40.4H154.7z M149.8,46l-2.9-9.4
	c-0.2-0.6-0.4-1.4-0.7-2.4c-0.3-1-0.6-2-0.9-3c-0.3-1-0.5-1.9-0.7-2.7c-0.2,0.8-0.4,1.7-0.8,2.8c-0.3,1.1-0.6,2.1-0.9,3.1
	c-0.3,1-0.5,1.7-0.6,2.1l-2.9,9.4H149.8z M180.8,22.5c3.7,0,6.7,0.4,9,1.3c2.4,0.9,4.2,2.2,5.3,4c1.2,1.8,1.7,4,1.7,6.7
	c0,1.8-0.3,3.4-1,4.8c-0.7,1.4-1.6,2.5-2.8,3.5c-1.1,1-2.4,1.7-3.7,2.3l11.8,17.5h-9.5l-9.6-15.4h-4.5v15.4H169V22.5H180.8z
	 M180.1,29.5h-2.6v10.9h2.8c2.8,0,4.8-0.5,6.1-1.4c1.2-1,1.8-2.3,1.8-4.2c0-1.9-0.7-3.3-2-4.1C184.9,29.9,182.9,29.5,180.1,29.5
	 M239.6,42.2c0,4.5-0.9,8.3-2.6,11.4c-1.7,3-4.2,5.3-7.5,6.9c-3.3,1.5-7.2,2.3-11.9,2.3h-11.4V22.5h12.6c4.2,0,7.9,0.7,11,2.3
	c3.1,1.5,5.5,3.7,7.2,6.6C238.8,34.3,239.6,37.9,239.6,42.2 M230.8,42.4c0-3-0.4-5.4-1.3-7.3c-0.9-1.9-2.1-3.3-3.9-4.3
	c-1.7-0.9-3.8-1.4-6.3-1.4h-4.5v26.2h3.7c4.2,0,7.3-1.1,9.3-3.3C229.7,50.1,230.8,46.8,230.8,42.4 M272.6,62.7l-2.9-9.6H255
	l-2.9,9.6h-9.2l14.2-40.4h10.4l14.3,40.4H272.6z M267.6,46l-2.9-9.4c-0.2-0.6-0.4-1.4-0.7-2.4c-0.3-1-0.6-2-0.9-3
	c-0.3-1-0.5-1.9-0.7-2.7c-0.2,0.8-0.4,1.7-0.8,2.8c-0.3,1.1-0.6,2.1-0.9,3.1c-0.3,1-0.5,1.7-0.6,2.1l-2.9,9.4H267.6z M322.6,62.7
	h-10.8l-17.5-30.4H294c0.1,1.3,0.1,2.5,0.2,3.8c0.1,1.3,0.1,2.6,0.2,3.9c0.1,1.3,0.1,2.5,0.2,3.8v18.9h-7.6V22.5h10.8l17.5,30.1h0.2
	c0-1.2-0.1-2.5-0.1-3.7c-0.1-1.2-0.1-2.5-0.2-3.7c0-1.2-0.1-2.5-0.1-3.7v-19h7.7V62.7z M369.2,42.5c0,3.1-0.4,5.9-1.2,8.5
	c-0.8,2.5-1.9,4.7-3.5,6.5c-1.6,1.8-3.5,3.2-5.9,4.2c-2.4,1-5.2,1.5-8.5,1.5c-3.3,0-6.1-0.5-8.5-1.5c-2.4-1-4.4-2.4-6-4.2
	c-1.6-1.8-2.7-4-3.5-6.6c-0.8-2.6-1.2-5.4-1.2-8.5c0-4.2,0.7-7.8,2-10.9c1.4-3.1,3.5-5.5,6.3-7.2c2.8-1.7,6.5-2.6,10.8-2.6
	c4.4,0,8,0.9,10.8,2.6c2.8,1.7,4.9,4.1,6.3,7.2C368.5,34.7,369.2,38.3,369.2,42.5 M339.9,42.5c0,2.8,0.3,5.2,1,7.3
	c0.7,2,1.8,3.6,3.3,4.7c1.5,1.1,3.5,1.6,5.8,1.6c2.4,0,4.4-0.5,5.9-1.6c1.5-1.1,2.6-2.7,3.3-4.7c0.7-2,1-4.5,1-7.3
	c0-4.2-0.8-7.5-2.4-10c-1.6-2.4-4.2-3.6-7.8-3.6c-2.4,0-4.4,0.5-5.9,1.7c-1.5,1.1-2.6,2.6-3.3,4.7C340.2,37.3,339.9,39.7,339.9,42.5
	"/>
<path class="st0" d="M367.3,4.9H2.7c-1.1,0-2-0.9-2-2s0.9-2,2-2h364.5c1.1,0,2,0.9,2,2S368.3,4.9,367.3,4.9"/>
<path class="st0" d="M367.3,84.1H2.7c-1.1,0-2-0.9-2-2s0.9-2,2-2h364.5c1.1,0,2,0.9,2,2S368.3,84.1,367.3,84.1"/>
</svg>
