<svg width="106" height="26" viewBox="0 0 106 26" fill="none" xmlns="http://www.w3.org/2000/svg">
<rect y="3.95001" width="9" height="9" fill="#84ADFF"/>
<path d="M9.1001 3.95001C14.0707 3.95001 18.1001 7.97945 18.1001 12.95H9.1001V3.95001Z" fill="#002266"/>
<path d="M0 13.05H9V22.05C4.02944 22.05 0 18.0206 0 13.05Z" fill="#002266"/>
<rect x="9.1001" y="13.05" width="9" height="9" fill="#84ADFF"/>
<path d="M25.1115 19V7.36364H29.7024C30.5812 7.36364 31.3312 7.52083 31.9524 7.83523C32.5774 8.14583 33.0527 8.58712 33.3785 9.15909C33.7081 9.72727 33.8728 10.3958 33.8728 11.1648C33.8728 11.9375 33.7062 12.6023 33.3728 13.1591C33.0395 13.7121 32.5565 14.1364 31.924 14.4318C31.2952 14.7273 30.5338 14.875 29.6399 14.875H26.566V12.8977H29.2421C29.7118 12.8977 30.102 12.8333 30.4126 12.7045C30.7232 12.5758 30.9543 12.3826 31.1058 12.125C31.2611 11.8674 31.3387 11.5473 31.3387 11.1648C31.3387 10.7784 31.2611 10.4527 31.1058 10.1875C30.9543 9.92235 30.7213 9.72159 30.4069 9.58523C30.0963 9.44508 29.7043 9.375 29.2308 9.375H27.5717V19H25.1115ZM31.3956 13.7045L34.2876 19H31.5717L28.7421 13.7045H31.3956ZM46.3046 13.1818C46.3046 14.4508 46.0641 15.5303 45.5831 16.4205C45.1058 17.3106 44.4543 17.9905 43.6285 18.4602C42.8065 18.9261 41.8823 19.1591 40.8558 19.1591C39.8217 19.1591 38.8937 18.9242 38.0717 18.4545C37.2497 17.9848 36.6001 17.3049 36.1228 16.4148C35.6456 15.5246 35.4069 14.447 35.4069 13.1818C35.4069 11.9129 35.6456 10.8333 36.1228 9.94318C36.6001 9.05303 37.2497 8.375 38.0717 7.90909C38.8937 7.43939 39.8217 7.20455 40.8558 7.20455C41.8823 7.20455 42.8065 7.43939 43.6285 7.90909C44.4543 8.375 45.1058 9.05303 45.5831 9.94318C46.0641 10.8333 46.3046 11.9129 46.3046 13.1818ZM43.8103 13.1818C43.8103 12.3598 43.6872 11.6667 43.441 11.1023C43.1986 10.5379 42.8558 10.1098 42.4126 9.81818C41.9694 9.52652 41.4505 9.38068 40.8558 9.38068C40.2611 9.38068 39.7421 9.52652 39.299 9.81818C38.8558 10.1098 38.5111 10.5379 38.2649 11.1023C38.0224 11.6667 37.9012 12.3598 37.9012 13.1818C37.9012 14.0038 38.0224 14.697 38.2649 15.2614C38.5111 15.8258 38.8558 16.2538 39.299 16.5455C39.7421 16.8371 40.2611 16.983 40.8558 16.983C41.4505 16.983 41.9694 16.8371 42.4126 16.5455C42.8558 16.2538 43.1986 15.8258 43.441 15.2614C43.6872 14.697 43.8103 14.0038 43.8103 13.1818ZM48.1271 19V7.36364H52.7862C53.6422 7.36364 54.3563 7.49053 54.9282 7.74432C55.5002 7.99811 55.9301 8.35038 56.218 8.80114C56.5059 9.24811 56.6498 9.76326 56.6498 10.3466C56.6498 10.8011 56.5589 11.2008 56.3771 11.5455C56.1953 11.8864 55.9453 12.1667 55.6271 12.3864C55.3127 12.6023 54.9528 12.7557 54.5475 12.8466V12.9602C54.9907 12.9792 55.4055 13.1042 55.7919 13.3352C56.182 13.5663 56.4983 13.8902 56.7407 14.3068C56.9831 14.7197 57.1044 15.2121 57.1044 15.7841C57.1044 16.4015 56.951 16.9527 56.6441 17.4375C56.3411 17.9186 55.8922 18.2992 55.2975 18.5795C54.7028 18.8598 53.9699 19 53.0987 19H48.1271ZM50.5873 16.9886H52.593C53.2786 16.9886 53.7786 16.858 54.093 16.5966C54.4074 16.3314 54.5646 15.9792 54.5646 15.5398C54.5646 15.2178 54.4869 14.9337 54.3316 14.6875C54.1763 14.4413 53.9547 14.2481 53.6669 14.108C53.3828 13.9678 53.0438 13.8977 52.6498 13.8977H50.5873V16.9886ZM50.5873 12.233H52.4112C52.7483 12.233 53.0475 12.1742 53.3089 12.0568C53.5741 11.9356 53.7824 11.7652 53.9339 11.5455C54.0892 11.3258 54.1669 11.0625 54.1669 10.7557C54.1669 10.3352 54.0172 9.99621 53.718 9.73864C53.4225 9.48106 53.0021 9.35227 52.4566 9.35227H50.5873V12.233ZM58.0234 7.36364H60.7791L63.4325 12.375H63.5461L66.1995 7.36364H68.9552L64.7109 14.8864V19H62.2677V14.8864L58.0234 7.36364ZM70.299 19V7.36364H72.7592V16.9716H77.7478V19H70.299ZM81.8373 7.36364V19H79.3771V7.36364H81.8373ZM93.5944 7.36364V19H91.4694L86.4069 11.6761H86.3217V19H83.8615V7.36364H86.0206L91.0433 14.6818H91.1456V7.36364H93.5944ZM95.6271 19V7.36364H103.468V9.39205H98.0873V12.1648H103.065V14.1932H98.0873V16.9716H103.491V19H95.6271Z" fill="#004EEB"/>
</svg>
