<?xml version="1.0" encoding="utf-8"?>
<!-- Generator: Adobe Illustrator 28.1.0, SVG Export Plug-In . SVG Version: 6.00 Build 0)  -->
<svg version="1.1" id="Слой_1" xmlns="http://www.w3.org/2000/svg" xmlns:xlink="http://www.w3.org/1999/xlink" x="0px" y="0px"
	 viewBox="0 0 1654 812" style="enable-background:new 0 0 1654 812;" xml:space="preserve">
<style type="text/css">
	.st0{fill:#E11826;}
</style>
<g transform="translate(0.000000,812.000000) scale(0.100000,-0.100000)">
	<path class="st0" d="M7565,8099c-2536-112-4776-764-6190-1803c-254-187-530-439-717-655c-870-1004-870-2158,0-3162
		C1805,1154,4310,222,7210,40c658-41,1462-41,2120,0c2521,158,4759,883,6065,1964c148,123,367,337,487,475c870,1004,870,2158,0,3162
		c-1147,1325-3652,2257-6552,2439C8851,8110,8017,8119,7565,8099z M7460,7329c0-6-284-784-632-1729l-631-1717l-61,39
		c-173,112-477,218-747,259c-44,7-76,15-72,19c5,4,46,17,93,29c115,31,288,103,384,159c254,152,378,347,346,547
		c-53,329-533,605-1180,679c-283,32-535,38-1890,45l-1365,6l100,74c490,361,1160,691,1920,946c978,327,2159,550,3340,629
		c127,9,250,17,275,19C7439,7340,7460,7340,7460,7329z M9336,7325c1309-85,2440-293,3479-639c807-269,1460-594,1967-978l123-93
		l-2127-3l-2128-2v-255v-255l1471-2l1471-3l-1522-903c-838-497-1526-900-1530-895c-5,5-1394,3669-1528,4031
		C9006,7344,9050,7344,9336,7325z M8676,4618l449-1283l-447-3c-247-1-649-1-896,0l-447,3l440,1282c242,706,442,1283,445,1283
		S8428,5323,8676,4618z M1390,4058l-1-1323l-65,70c-283,302-461,622-536,962c-31,142-31,444,0,586c59,267,177,514,362,757
		c58,76,227,270,235,270C1388,5380,1390,4785,1390,4058z M15357,5163c215-266,358-560,410-845c24-128,23-389,0-518
		c-40-215-144-461-282-670c-62-93-70-102-73-77l-3,27l-1801,2l-1800,3l1731,1024l1731,1024v58c0,33,4,59,8,59
		C15283,5250,15318,5211,15357,5163z M4321,5130c355-21,568-108,625-255c26-68,16-163-22-217c-90-129-296-204-620-228
		c-76-5-489-10-916-10h-778v360v360h778C3815,5140,4235,5135,4321,5130z M4315,3890c332-17,506-50,656-126c172-86,247-222,204-369
		c-32-112-168-213-355-264c-193-53-195-53-1237-58l-973-4v415v416h748C3769,3900,4200,3895,4315,3890z M5466,1896
		c-167-455-307-830-310-833c-2-3-92,14-198,37c-899,196-1652,450-2318,781c-264,132-450,238-655,375c-149,99-375,271-375,284
		c0,5,726,10,1613,13c1106,3,1654,8,1747,16c285,25,550,74,725,134c39,13,71,23,73,22C5769,2724,5633,2351,5466,1896z M14935,2533
		c-74-65-274-213-418-307c-745-489-1765-877-3000-1142c-70-15-130-25-133-22s-126,327-275,719c-148,393-276,731-284,752l-15,37h2083
		l2082-1L14935,2533z M9788,1507c130-356,233-649,230-652c-2-3-103-14-224-25c-1005-90-2015-90-3054,1c-135,12-248,24-252,28
		c-4,3,93,297,215,654l222,647l1314-2l1315-3L9788,1507z"/>
</g>
</svg>
